<svg width="24" height="24" viewBox="0 0 24 24" fill="none" xmlns="http://www.w3.org/2000/svg">
<path d="M17.3333 0H6.66667C2.98533 0 0 2.98533 0 6.66667V17.3333C0 21.0147 2.98533 24 6.66667 24H17.3333C21.0147 24 24 21.0147 24 17.3333V6.66667C24 2.98533 21.0147 0 17.3333 0ZM12 18.6667C8.31867 18.6667 5.33333 15.6813 5.33333 12C5.33333 8.31867 8.31867 5.33333 12 5.33333C15.6813 5.33333 18.6667 8.31867 18.6667 12C18.6667 15.6813 15.6813 18.6667 12 18.6667ZM20 5.33333C19.264 5.33333 18.6667 4.736 18.6667 4C18.6667 3.264 19.264 2.66667 20 2.66667C20.736 2.66667 21.3333 3.264 21.3333 4C21.3333 4.736 20.736 5.33333 20 5.33333Z" fill="white"/>
<path d="M12 8C10.9391 8 9.92172 8.42143 9.17157 9.17157C8.42143 9.92172 8 10.9391 8 12C8 13.0609 8.42143 14.0783 9.17157 14.8284C9.92172 15.5786 10.9391 16 12 16C13.0609 16 14.0783 15.5786 14.8284 14.8284C15.5786 14.0783 16 13.0609 16 12C16 10.9391 15.5786 9.92172 14.8284 9.17157C14.0783 8.42143 13.0609 8 12 8Z" fill="white"/>
</svg>
