<svg width="24" height="24" viewBox="0 0 24 24" fill="none" xmlns="http://www.w3.org/2000/svg">
<path d="M0 0V24H24V0H0ZM5.7841 20.6621C4.44362 20.6621 3.35698 19.5754 3.35698 18.235C3.35698 16.8945 4.44367 15.8079 5.7841 15.8079C7.12457 15.8079 8.21121 16.8945 8.21121 18.235C8.21121 19.5754 7.12457 20.6621 5.7841 20.6621ZM11.4847 20.5679C11.4847 16.0978 7.84805 12.461 3.37794 12.461V9.0723C9.71657 9.0723 14.8734 14.2292 14.8734 20.5678H11.4847V20.5679ZM17.2543 20.5679C17.2543 16.8674 15.8155 13.3906 13.2029 10.778C10.5904 8.16545 7.11356 6.7266 3.41307 6.7266V3.33786C8.01873 3.33786 12.3465 5.12918 15.5992 8.38179C18.8518 11.6344 20.6431 15.9622 20.6431 20.5679H17.2543Z" fill="white"/>
</svg>
