<svg width="24" height="24" viewBox="0 0 24 24" fill="none" xmlns="http://www.w3.org/2000/svg">
<path d="M24 0H0V24H24V0ZM18.7333 8.68533C18.7333 8.8 18.7333 8.91333 18.7333 9.14267C18.7333 13.4853 15.4187 18.5147 9.36133 18.5147C7.53333 18.5147 5.81867 17.9427 4.33333 17.0293C4.56133 17.0293 4.90533 17.0293 5.13333 17.0293C6.61867 17.0293 8.10533 16.4573 9.248 15.6573C7.76267 15.6573 6.62 14.6293 6.16267 13.372C6.39067 13.372 6.62 13.4867 6.73467 13.4867C7.07733 13.4867 7.30667 13.4867 7.64933 13.372C6.164 13.0293 5.02133 11.772 5.02133 10.172C5.47867 10.4 5.936 10.5147 6.50667 10.6293C5.592 9.82933 5.02133 8.91467 5.02133 7.772C5.02133 7.2 5.136 6.62933 5.47867 6.172C7.07867 8.11467 9.47867 9.48667 12.2213 9.6C12.2213 9.372 12.1067 9.14267 12.1067 8.8C12.1067 6.972 13.592 5.48533 15.4213 5.48533C16.336 5.48533 17.2493 5.828 17.8213 6.51333C18.6213 6.39867 19.3067 6.056 19.8787 5.71333C19.6507 6.51333 19.0787 7.08533 18.3933 7.54133C19.0787 7.42667 19.6507 7.31333 20.336 6.96933C19.876 7.65733 19.3053 8.228 18.7333 8.68533Z" fill="white"/>
</svg>
